<svg xmlns="http://www.w3.org/2000/svg" viewBox="0 0 200 200" width="200" height="200">
  <path d="M100 178 C42 141 14 108 14 77 C14 48 36 29 60 29 C79 29 94 40 100 56 C106 40 121 29 140 29 C164 29 186 48 186 77 C186 108 158 141 100 178 Z"
        fill="none" stroke="currentColor" stroke-width="12" stroke-linejoin="round"/>

  <g transform="translate(35.3 17.7) scale(0.66)">
    <g fill="currentColor">
      <ellipse cx="42" cy="106" rx="13" ry="28" transform="rotate(-14 42 106)"/>
      <ellipse cx="96" cy="106" rx="13" ry="28" transform="rotate(14 96 106)"/>
      <circle cx="69" cy="114" r="33"/>
      <ellipse cx="69" cy="137" rx="18" ry="14"/>
      <path d="M117 100 L122 62 L149 88 Z"/>
      <path d="M167 100 L162 62 L135 88 Z"/>
      <circle cx="142" cy="118" r="29"/>
    </g>
    <g fill="var(--hueco, #faf6f0)">
      <circle cx="57" cy="108" r="4.8"/><circle cx="81" cy="108" r="4.8"/>
      <ellipse cx="69" cy="130" rx="6.5" ry="5"/>
      <circle cx="132" cy="113" r="4.2"/><circle cx="152" cy="113" r="4.2"/>
      <path d="M137.5 126 h9 l-4.5 5.5 Z"/>
    </g>
  </g>

  <g fill="currentColor" transform="translate(78 112) scale(0.22)">
    <ellipse cx="62" cy="98" rx="13" ry="16.5" transform="rotate(-26 62 98)"/>
    <ellipse cx="85" cy="77" rx="13" ry="17.5" transform="rotate(-9 85 77)"/>
    <ellipse cx="113" cy="77" rx="13" ry="17.5" transform="rotate(9 113 77)"/>
    <ellipse cx="136" cy="98" rx="13" ry="16.5" transform="rotate(26 136 98)"/>
    <ellipse cx="99" cy="132" rx="31" ry="25"/>
  </g>
</svg>
